<svg width="21" height="21" viewBox="0 0 21 21" fill="none" xmlns="http://www.w3.org/2000/svg">
<path d="M7.875 15.75V4.375L18.375 2.625V14" stroke="white" stroke-linecap="round" stroke-linejoin="round"/>
<path d="M5.25 18.375C6.69975 18.375 7.875 17.1998 7.875 15.75C7.875 14.3002 6.69975 13.125 5.25 13.125C3.80025 13.125 2.625 14.3002 2.625 15.75C2.625 17.1998 3.80025 18.375 5.25 18.375Z" stroke="white" stroke-linecap="round" stroke-linejoin="round"/>
<path d="M15.75 16.625C17.1998 16.625 18.375 15.4498 18.375 14C18.375 12.5502 17.1998 11.375 15.75 11.375C14.3002 11.375 13.125 12.5502 13.125 14C13.125 15.4498 14.3002 16.625 15.75 16.625Z" stroke="white" stroke-linecap="round" stroke-linejoin="round"/>
</svg>
